# xmcd
#
# Track frame offsets: 
#        150
#        20232
#        34209
#        53235
#        62757
#        74967
#        89789
#        105590
#        113750
#        134678
#        149480
#        161921
#        164974
#        192751
#
# Disc length: 2897 seconds
#
# Revision: 0
# Processed by: cddbd v1.5.2PL0 Copyright (c) Steve Scherf et al.
# Submitted via: ExactAudioCopy v0.95b4
#
DISCID=e80b4f0e
DTITLE=Nashville Fats - God's Country
DYEAR=2003
DGENRE=Christian Blues
TTITLE0=Yardsale Guitar
TTITLE1=Armed and Dangerous
TTITLE2=His Shadow Never Turns
TTITLE3=Shenandoah
TTITLE4=Taking A Shine To Jesus
TTITLE5=He's Knockin' On Your Door
TTITLE6=Gospel Boogie
TTITLE7=Lieberstraum
TTITLE8=Pray For America
TTITLE9=Call On Jesus
TTITLE10=Balaam's Donkey
TTITLE11=Greensleeves
TTITLE12=That's How It is
TTITLE13=Extras
EXTD=
EXTT0=
EXTT1=
EXTT2=
EXTT3=
EXTT4=
EXTT5=
EXTT6=
EXTT7=
EXTT8=
EXTT9=
EXTT10=
EXTT11=
EXTT12=
EXTT13=
PLAYORDER=
